<?xml version="1.0" encoding="UTF-8"?>
<!DOCTYPE svg PUBLIC "-//W3C//DTD SVG 1.1//EN" "http://www.w3.org/Graphics/SVG/1.1/DTD/svg11.dtd">
<!-- Creator: CorelDRAW 2021 (64 Bit) -->
<svg xmlns="http://www.w3.org/2000/svg" xml:space="preserve" width="77.5546mm" height="17.4164mm" version="1.1" style="shape-rendering:geometricPrecision; text-rendering:geometricPrecision; image-rendering:optimizeQuality; fill-rule:evenodd; clip-rule:evenodd"
viewBox="0 0 7755.46 1741.64"
 xmlns:xlink="http://www.w3.org/1999/xlink"
 xmlns:xodm="http://www.corel.com/coreldraw/odm/2003">
 <defs>
  <style type="text/css">
   <![CDATA[
    .str0 {stroke:black;stroke-width:20;stroke-miterlimit:22.9256}
    .fil3 {fill:none}
    .fil0 {fill:black}
    .fil2 {fill:black;fill-rule:nonzero}
    .fil1 {fill:#DF301D;fill-rule:nonzero}
   ]]>
  </style>
 </defs>
 <g id="Camada_x0020_1">
  <metadata id="CorelCorpID_0Corel-Layer"/>
  <g id="_1828008356816">
   <path class="fil0" d="M6.4 1034.56l281.11 0 0 -289.79 139.1 0c252.12,0 436.14,-126.06 436.14,-365.14l0 -2.91c0,-224.58 -165.18,-356.44 -421.66,-356.44l-434.69 0 0 1014.28zm281.11 -510.04l0 -268.05 131.84 0c101.44,0 162.29,46.36 162.29,133.3l0 2.9c0,79.69 -60.85,131.85 -160.83,131.85l-133.3 0zm511.47 510.04l295.59 0 72.44 -181.12 391.24 0 73.9 181.12 301.37 0 -431.8 -1021.52 -270.94 0 -431.8 1021.52zm450.62 -399.92l114.48 -288.34 113.02 288.34 -227.5 0zm1199.74 418.76c288.35,0 475.26,-143.45 475.26,-470.92l0 -562.2 -285.44 0 0 570.9c0,141.99 -73.89,208.65 -186.91,208.65 -113.02,0 -186.92,-69.55 -186.92,-215.89l0 -563.66 -285.45 0 0 569.44c0,317.32 181.13,463.68 469.46,463.68zm641.9 -18.84l772.3 0 0 -246.32 -491.19 0 0 -767.96 -281.11 0 0 1014.28zm898.36 0l282.55 0 0 -1014.28 -282.55 0 0 1014.28zm468.01 0l278.2 0 0 -556.4 217.07 278.76c96.01,-76.68 218.39,-122.28 355.24,-122.28 37.91,0 73.51,2.5 107.25,7.55l0 -621.91 -278.2 0 0 536.12 -417.29 -536.12 -262.27 0 0 1014.28zm1384.39 -146.8l9.5 -235.73 24.66 0 0 -2.89 360.79 0 0 2.89 24.59 0c91.73,0 178.72,17.48 256.5,50.01l0 -681.76 -281.09 0 0 379.63 -360.79 0 0 -379.63 -281.11 0 0 681.07c51.29,27.62 104.38,56.82 153.82,101.74l93.13 84.67zm1861.31 -131.83c33.62,-69.14 52.15,-146.65 52.15,-228.5l0 -2.91c0,-291.24 -231.82,-524.52 -544.81,-524.52 -312.98,0 -547.71,236.17 -547.71,527.43l0 2.89c0,200.9 110.32,374.19 281.47,462.38 -0.24,-5.77 -0.39,-11.59 -0.39,-17.56l0 -2.89c0,-96.95 39.89,-174.85 101.94,-231.06 -59.4,-51.01 -94.67,-129.26 -94.67,-213.76l0 -2.91c0,-146.34 102.87,-270.96 256.46,-270.96 155.05,0 260.82,127.51 260.82,273.87l0 2.89c0,40.92 -8.06,80.14 -23.04,115.41 94.01,14.82 176.67,50.28 257.78,110.2z"/>
   <path class="fil1" d="M5303.78 1741.64c184.02,0 299.94,-71 405.71,-178.22l-75.34 -73.9c-97.08,92.73 -188.37,146.34 -327.47,146.34 -223.14,0 -392.67,-184.01 -392.67,-418.75l0 -2.89c0,-233.29 168.08,-415.86 392.67,-415.86 137.65,0 233.28,57.96 318.77,139.1l78.25 -84.03c-101.43,-95.64 -211.55,-160.84 -395.57,-160.84 -298.48,0 -512.93,237.63 -512.93,524.52l0 2.9c0,291.24 215.89,521.63 508.58,521.63zm605.67 -17.39l352.09 0c318.78,0 539.02,-221.69 539.02,-507.14l0 -2.89c0,-285.45 -220.24,-504.24 -539.02,-504.24l-352.09 0 0 1014.27zm114.46 -105.77l0 -802.73 237.63 0c256.47,0 420.2,176.78 420.2,401.36l0 2.9c0,224.59 -163.73,398.47 -420.2,398.47l-237.63 0zm1351.89 120.26c201.4,0 346.3,-113.02 346.3,-286.89l0 -2.9c0,-155.04 -104.33,-237.63 -330.36,-286.9 -223.14,-47.81 -275.31,-101.42 -275.31,-197.06l0 -2.89c0,-91.29 84.04,-163.74 215.9,-163.74 104.32,0 198.51,33.33 292.69,110.13l66.65 -88.39c-102.88,-82.59 -208.65,-124.61 -356.44,-124.61 -192.72,0 -333.26,117.36 -333.26,276.75l0 2.9c0,166.63 107.22,241.97 340.5,292.69 213,44.92 263.71,98.53 263.71,192.71l0 2.9c0,99.98 -89.83,172.42 -226.04,172.42 -140.54,0 -241.97,-47.81 -347.75,-143.44l-71 84.04c121.72,108.67 253.57,162.28 414.41,162.28z"/>
   <path class="fil2" d="M111.57 1431.56c62.93,0 105.77,-49.93 105.77,-106.95 0.29,-0.3 0.29,-0.3 0,-0.59 0,-57.02 -42.25,-106.36 -105.18,-106.36 -62.92,0 -105.76,49.93 -105.76,106.95l0 0.59c0,57.02 42.25,106.36 105.17,106.36zm0.59 -21.57c-47.27,0 -81.54,-38.41 -81.54,-85.38l0 -0.59c0,-46.97 33.68,-84.79 80.95,-84.79 47.27,0 81.54,38.41 81.54,85.38l0 0.59c0,46.97 -33.68,84.79 -80.95,84.79zm382.61 18.02l23.34 0 0 -93.06 119.35 0 0 93.06 23.34 0 0 -206.8 -23.34 0 0 91.88 -119.35 0 0 -91.88 -23.34 0 0 206.8zm460 3.55c62.93,0 105.77,-49.93 105.77,-106.95 0.29,-0.3 0.29,-0.3 0,-0.59 0,-57.02 -42.25,-106.36 -105.18,-106.36 -62.92,0 -105.76,49.93 -105.76,106.95l0 0.59c0,57.02 42.25,106.36 105.17,106.36zm0.59 -21.57c-47.27,0 -81.54,-38.41 -81.54,-85.38l0 -0.59c0,-46.97 33.68,-84.79 80.95,-84.79 47.27,0 81.54,38.41 81.54,85.38l0 0.59c0,46.97 -33.68,84.79 -80.95,84.79zm293.98 18.02l22.75 0 0 -167.21 75.33 110.49 1.18 0 75.34 -110.79 0 167.51 23.34 0 0 -206.8 -23.64 0 -75.33 112.85 -75.34 -112.85 -23.63 0 0 206.8zm395.89 0l150.96 0 0 -21.27 -127.62 0 0 -72.38 112.85 0 0 -21.27 -112.85 0 0 -70.61 126.15 0 0 -21.27 -149.49 0 0 206.8zm337.4 0l22.75 0 0 -167.21 75.33 110.49 1.18 0 75.34 -110.79 0 167.51 23.34 0 0 -206.8 -23.64 0 -75.33 112.85 -75.34 -112.85 -23.63 0 0 206.8zm484.52 0l71.79 0c64.99,0 109.9,-45.2 109.9,-103.4l0 -0.59c0,-58.2 -44.91,-102.81 -109.9,-102.81l-71.79 0 0 206.8zm23.34 -21.57l0 -163.66 48.45 0c52.29,0 85.67,36.04 85.67,81.83l0 0.59c0,45.79 -33.38,81.24 -85.67,81.24l-48.45 0zm315.83 21.57l23.93 0 24.52 -54.65 112.56 0 24.23 54.65 25.11 0 -94.24 -208.28 -21.87 0 -94.24 208.28zm57.61 -75.63l47.27 -105.47 46.97 105.47 -94.24 0zm421.6 75.63l22.75 0 0 -167.21 75.33 110.49 1.18 0 75.34 -110.79 0 167.51 23.34 0 0 -206.8 -23.64 0 -75.33 112.85 -75.34 -112.85 -23.63 0 0 206.8zm397.96 0l23.33 0 0 -206.8 -23.33 0 0 206.8zm2.36 -225.12l18.32 0 33.38 -31.9 -23.64 -10.94 -28.06 42.84zm221 225.12l71.79 0c64.99,0 109.9,-45.2 109.9,-103.4l0 -0.59c0,-58.2 -44.91,-102.81 -109.9,-102.81l-71.79 0 0 206.8zm23.34 -21.57l0 -163.66 48.45 0c52.29,0 85.67,36.04 85.67,81.83l0 0.59c0,45.79 -33.38,81.24 -85.67,81.24l-48.45 0zm349.22 21.57l23.33 0 0 -206.8 -23.33 0 0 206.8zm205.63 0l23.93 0 24.52 -54.65 112.56 0 24.23 54.65 25.11 0 -94.24 -208.28 -21.87 0 -94.24 208.28zm57.61 -75.63l47.27 -105.47 46.97 105.47 -94.24 0z"/>
   <line class="fil3 str0" x1="-0" y1="1605.41" x2="4701.84" y2= "1605.41" />
  </g>
 </g>
</svg>
